<?xml version="1.0" standalone="no" ?>
<!DOCTYPE svg PUBLIC "-//W3C//DTD SVG 1.1//EN" "http://www.w3.org/Graphics/SVG/1.1/DTD/svg11.dtd">
<svg width="1111px" height="383px" viewBox="0 0 1111 383" xmlns="http://www.w3.org/2000/svg" xmlns:xlink="http://www.w3.org/1999/xlink" version="1.1" >
<path stroke="transparent" fill="#2bd540" transform="matrix(0.166667 0 0 0.166667 -305.5 -426)" d="M 5723.77,3162.38 L 5718,3152.38 L 5722.14,3142.38 L 6323.77,3142.38 L 6312.23,3162.38 L 5723.77,3162.38 Z " />
<path stroke="transparent" fill="#2bd540" transform="matrix(0.166667 0 0 0.166667 -305.5 -426)" d="M 5759.57,3234.38 L 5759.57,3214.38 L 6276.43,3214.38 L 6276.43,3234.38 L 5759.57,3234.38 Z " />
<path stroke="transparent" fill="#2bd540" transform="matrix(0.166667 0 0 0.166667 -305.5 -426)" d="M 5429.55,3672 L 5418,3672 L 5412.23,3662 L 5705.5,3154.03 L 5718,3152.38 L 5723.77,3162.38 L 5429.55,3672 Z " />
<path stroke="transparent" fill="#2bd540" transform="matrix(0.166667 0 0 0.166667 -305.5 -426)" d="M 5723.77,4181.62 L 5718,4191.62 L 5705.5,4189.97 L 5412.23,3682 L 5418,3672 L 5429.55,3672 L 5723.77,4181.62 Z " />
<path stroke="transparent" fill="#2bd540" transform="matrix(0.166667 0 0 0.166667 -305.5 -426)" d="M 5768.23,4114.62 L 5750.91,4124.62 L 5492.48,3677 L 5509.8,3667 L 5768.23,4114.62 Z " />
<path stroke="transparent" fill="#2bd540" transform="matrix(0.166667 0 0 0.166667 -305.5 -426)" d="M 6312.23,4181.62 L 6323.77,4201.62 L 5722.14,4201.62 L 5718,4191.62 L 5723.77,4181.62 L 6312.23,4181.62 Z " />
<path stroke="transparent" fill="#2bd540" transform="matrix(0.166667 0 0 0.166667 -305.5 -426)" d="M 6606.45,3672 L 6618,3672 L 6623.8,3681.96 L 6323.77,4201.62 L 6312.23,4181.62 L 6606.45,3672 Z " />
<path stroke="transparent" fill="#2bd540" transform="matrix(0.166667 0 0 0.166667 -305.5 -426)" d="M 6526.2,3667 L 6543.52,3677 L 6285.09,4124.62 L 6267.77,4114.62 L 6526.2,3667 Z " />
<path stroke="transparent" fill="#2bd540" transform="matrix(0.166667 0 0 0.166667 -305.5 -426)" d="M 6312.23,3162.38 L 6323.77,3142.38 L 6623.75,3661.96 L 6618,3672 L 6606.45,3672 L 6312.23,3162.38 L 6312.23,3162.38 Z " />
<text x="0" y="0" stroke="transparent" fill="#2bd540" transform="matrix(0.166667 0 0 0.166667 926.658 119.703)" style="font:normal normal normal 320px 'Arial'" >
O</text>
<path stroke="transparent" fill="#2bd540" transform="matrix(0.166667 0 0 0.166667 -305.5 -426)" d="M 7229,3667.83 L 7217.45,3667.83 L 7211.65,3657.87 L 7425.15,3288.08 L 7442.47,3298.08 L 7229,3667.83 L 7229,3667.83 Z " />
<path stroke="transparent" fill="#2bd540" transform="matrix(0.166667 0 0 0.166667 -305.5 -426)" d="M 7309.25,3672.83 L 7291.93,3662.83 L 7319.87,3614.44 L 7337.19,3624.44 L 7309.25,3672.83 L 7309.25,3672.83 Z " />
<path stroke="transparent" fill="#2bd540" transform="matrix(0.166667 0 0 0.166667 -305.5 -426)" d="M 7365.13,3576.05 L 7347.81,3566.05 L 7375.75,3517.65 L 7393.07,3527.65 L 7365.13,3576.05 L 7365.13,3576.05 Z " />
<path stroke="transparent" fill="#2bd540" transform="matrix(0.166667 0 0 0.166667 -305.5 -426)" d="M 7421.01,3479.26 L 7403.69,3469.26 L 7431.62,3420.87 L 7448.95,3430.87 L 7421.01,3479.26 L 7421.01,3479.26 Z " />
<path stroke="transparent" fill="#2bd540" transform="matrix(0.166667 0 0 0.166667 -305.5 -426)" d="M 7476.89,3382.48 L 7459.56,3372.48 L 7487.5,3324.08 L 7504.82,3334.08 L 7476.89,3382.48 L 7476.89,3382.48 Z " />
<text x="0" y="0" stroke="transparent" fill="#2bd540" transform="matrix(0.166667 0 0 0.166667 926.658 292.908)" style="font:normal normal normal 320px 'Arial'" >
O</text>
<path stroke="transparent" fill="#2bd540" transform="matrix(0.166667 0 0 0.166667 -305.5 -426)" d="M 7451.93,4053.97 L 7434.61,4063.97 L 7211.7,3677.87 L 7217.45,3667.83 L 7229,3667.83 L 7451.93,4053.97 L 7451.93,4053.97 Z " />
<path stroke="transparent" fill="#2bd540" transform="matrix(0.166667 0 0 0.166667 -305.5 -426)" d="M 7514.28,4017.97 L 7496.96,4027.97 L 7467.67,3977.23 L 7484.99,3967.23 L 7514.28,4017.97 L 7514.28,4017.97 Z " />
<path stroke="transparent" fill="#2bd540" transform="matrix(0.166667 0 0 0.166667 -305.5 -426)" d="M 7455.7,3916.5 L 7438.38,3926.5 L 7409.09,3875.77 L 7426.41,3865.77 L 7455.7,3916.5 L 7455.7,3916.5 Z " />
<path stroke="transparent" fill="#2bd540" transform="matrix(0.166667 0 0 0.166667 -305.5 -426)" d="M 7397.12,3815.03 L 7379.8,3825.03 L 7350.51,3774.3 L 7367.83,3764.3 L 7397.12,3815.03 L 7397.12,3815.03 Z " />
<path stroke="transparent" fill="#2bd540" transform="matrix(0.166667 0 0 0.166667 -305.5 -426)" d="M 7338.54,3713.57 L 7321.22,3723.57 L 7291.93,3672.83 L 7309.25,3662.83 L 7338.54,3713.57 L 7338.54,3713.57 Z " />
<path stroke="transparent" fill="#2bd540" transform="matrix(0.166667 0 0 0.166667 -305.5 -426)" d="M 7211.65,3657.87 L 7217.45,3667.83 L 7211.7,3677.87 L 6623.8,3681.96 L 6618,3672 L 6623.75,3661.96 L 7211.65,3657.87 L 7211.65,3657.87 Z " />
<path stroke="#0000ff" stroke-width="16" fill="transparent" transform="matrix(0.166667 0 0 0.166667 -305.5 -426)" d="M 7791.33,3429.2 A 96,96 0 1 0 7983.33,3429.2A 96,96 0 1 0 7791.33,3429.2Z " />
<path stroke="transparent" fill="#0000ff" transform="matrix(0.166667 0 0 0.166667 -305.5 -426)" d="M 7833.2,3420.93 L 7940.93,3420.93 L 7940.93,3436.93 L 7833.2,3436.93 Z " />
<path stroke="transparent" fill="#0000ff" transform="matrix(0.166667 0 0 0.166667 -305.5 -426)" d="M 7895.07,3375.07 L 7895.07,3482.8 L 7879.07,3482.8 L 7879.07,3375.07 Z " />
<path stroke="#2bd540" stroke-width="16" fill="transparent" transform="matrix(0.166667 0 0 0.166667 -305.5 -426)" d="M 7539.33,3615.35 A 113,113 0 1 0 7765.33,3615.35A 113,113 0 1 0 7539.33,3615.35Z " />
<path stroke="transparent" fill="#2bd540" transform="matrix(0.166667 0 0 0.166667 -305.5 -426)" d="M 7589.91,3607.51 L 7715.07,3607.51 L 7715.07,3623.51 L 7589.91,3623.51 Z " />
<text x="0" y="0" stroke="transparent" fill="#0000ff" transform="matrix(0.166667 0 0 0.166667 1035.67 199.5)" style="font:normal normal normal 320px 'Arial'" >
Na</text>
<text x="0" y="0" stroke="transparent" fill="#ff0000" transform="matrix(0.166667 0 0 0.166667 6.82292 207)" style="font:normal normal normal 320px 'Arial'" >
H</text>
<text x="0" y="0" stroke="transparent" fill="#ff0000" transform="matrix(0.166667 0 0 0.166667 45.3385 218.333)" style="font:normal normal normal 240px 'Arial'" >
2</text>
<text x="0" y="0" stroke="transparent" fill="#ff0000" transform="matrix(0.166667 0 0 0.166667 67.5885 207)" style="font:normal normal normal 320px 'Arial'" >
C=HCOO(CH</text>
<text x="0" y="0" stroke="transparent" fill="#ff0000" transform="matrix(0.166667 0 0 0.166667 392.167 218.333)" style="font:normal normal normal 240px 'Arial'" >
2</text>
<text x="0" y="0" stroke="transparent" fill="#ff0000" transform="matrix(0.166667 0 0 0.166667 414.417 207)" style="font:normal normal normal 320px 'Arial'" >
)</text>
<text x="0" y="0" stroke="transparent" fill="#ff0000" transform="matrix(0.166667 0 0 0.166667 432.25 218.333)" style="font:normal normal normal 240px 'Arial'" >
11</text>
<text x="0" y="0" stroke="transparent" fill="#2bd540" transform="matrix(0.166667 0 0 0.166667 476.75 207)" style="font:normal normal normal 320px 'Arial'" >
O</text>
<path stroke="transparent" fill="#2bd540" transform="matrix(0.166667 0 0 0.166667 -305.5 -426)" d="M 4967.94,3682 L 4967.94,3662 L 5412.23,3662 L 5418,3672 L 5412.23,3682 L 4967.94,3682 Z " />
<text x="0" y="0" stroke="transparent" fill="#ff0000" transform="matrix(0.166667 0 0 0.166667 86.1122 49.6868)" style="font:normal normal normal 320px 'Arial'" >
H</text>
<text x="0" y="0" stroke="transparent" fill="#ff0000" transform="matrix(0.166667 0 0 0.166667 124.628 61.0201)" style="font:normal normal normal 240px 'Arial'" >
2</text>
<text x="0" y="0" stroke="transparent" fill="#ff0000" transform="matrix(0.166667 0 0 0.166667 146.878 49.6868)" style="font:normal normal normal 320px 'Arial'" >
C=HCOO(CH</text>
<text x="0" y="0" stroke="transparent" fill="#ff0000" transform="matrix(0.166667 0 0 0.166667 471.456 61.0201)" style="font:normal normal normal 240px 'Arial'" >
2</text>
<text x="0" y="0" stroke="transparent" fill="#ff0000" transform="matrix(0.166667 0 0 0.166667 493.706 49.6868)" style="font:normal normal normal 320px 'Arial'" >
)</text>
<text x="0" y="0" stroke="transparent" fill="#ff0000" transform="matrix(0.166667 0 0 0.166667 511.539 61.0201)" style="font:normal normal normal 240px 'Arial'" >
11</text>
<text x="0" y="0" stroke="transparent" fill="#2bd540" transform="matrix(0.166667 0 0 0.166667 556.039 49.6868)" style="font:normal normal normal 320px 'Arial'" >
O</text>
<path stroke="transparent" fill="#2bd540" transform="matrix(0.166667 0 0 0.166667 -305.5 -426)" d="M 5403.17,2851.69 L 5417.31,2837.55 L 5722.14,3142.38 L 5718,3152.38 L 5705.5,3154.03 L 5403.17,2851.69 Z " />
<text x="0" y="0" stroke="transparent" fill="#ff0000" transform="matrix(0.166667 0 0 0.166667 86.1122 364.313)" style="font:normal normal normal 320px 'Arial'" >
H</text>
<text x="0" y="0" stroke="transparent" fill="#ff0000" transform="matrix(0.166667 0 0 0.166667 124.628 375.647)" style="font:normal normal normal 240px 'Arial'" >
2</text>
<text x="0" y="0" stroke="transparent" fill="#ff0000" transform="matrix(0.166667 0 0 0.166667 146.878 364.313)" style="font:normal normal normal 320px 'Arial'" >
C=HCOO(CH</text>
<text x="0" y="0" stroke="transparent" fill="#ff0000" transform="matrix(0.166667 0 0 0.166667 471.456 375.647)" style="font:normal normal normal 240px 'Arial'" >
2</text>
<text x="0" y="0" stroke="transparent" fill="#ff0000" transform="matrix(0.166667 0 0 0.166667 493.706 364.313)" style="font:normal normal normal 320px 'Arial'" >
)</text>
<text x="0" y="0" stroke="transparent" fill="#ff0000" transform="matrix(0.166667 0 0 0.166667 511.539 375.647)" style="font:normal normal normal 240px 'Arial'" >
11</text>
<text x="0" y="0" stroke="transparent" fill="#2bd540" transform="matrix(0.166667 0 0 0.166667 556.039 364.313)" style="font:normal normal normal 320px 'Arial'" >
O</text>
<path stroke="transparent" fill="#2bd540" transform="matrix(0.166667 0 0 0.166667 -305.5 -426)" d="M 5406.31,4517.45 L 5392.17,4503.31 L 5705.5,4189.97 L 5718,4191.62 L 5722.14,4201.62 L 5406.31,4517.45 Z " />
</svg>
