<?xml version="1.0" standalone="no" ?>
<!DOCTYPE svg PUBLIC "-//W3C//DTD SVG 1.1//EN" "http://www.w3.org/Graphics/SVG/1.1/DTD/svg11.dtd">
<svg width="731px" height="646px" viewBox="0 0 731 646" xmlns="http://www.w3.org/2000/svg" xmlns:xlink="http://www.w3.org/1999/xlink" version="1.1" >
<text x="0" y="0" stroke="transparent" fill="#3fc56a" transform="matrix(0.166667 0 0 0.166667 429.431 128.667)" style="font:normal normal normal 320px 'Arial'" >
N</text>
<text x="0" y="0" stroke="transparent" fill="#3fc56a" transform="matrix(0.166667 0 0 0.166667 524.537 259.568)" style="font:normal normal normal 320px 'Arial'" >
N</text>
<path stroke="transparent" fill="#3fc56a" transform="matrix(0.166667 0 0 0.166667 -307.5 -275.333)" d="M 4547.09,2890.73 L 4527.09,2905.27 L 4527.09,2463.17 L 4547.09,2463.17 L 4547.09,2890.73 Z " />
<path stroke="transparent" fill="#3fc56a" transform="matrix(0.166667 0 0 0.166667 -307.5 -275.333)" d="M 4966.86,3027.13 L 4960.68,3046.15 L 4527.09,2905.27 L 4547.09,2890.73 L 4966.86,3027.13 Z " />
<path stroke="transparent" fill="#3fc56a" transform="matrix(0.166667 0 0 0.166667 -307.5 -275.333)" d="M 4989.11,2958.65 L 4982.93,2977.67 L 4606,2855.2 L 4612.18,2836.18 L 4989.11,2958.65 Z " />
<path stroke="transparent" fill="#3fc56a" transform="matrix(0.166667 0 0 0.166667 -307.5 -275.333)" d="M 5448.03,2598 L 5472.75,2598 L 5218.8,2947.54 L 5202.62,2935.78 L 5448.03,2598 Z " />
<path stroke="transparent" fill="#3fc56a" transform="matrix(0.166667 0 0 0.166667 -307.5 -275.333)" d="M 5103.9,2124.35 L 5111.54,2100.83 L 5472.75,2598 L 5448.03,2598 L 5103.9,2124.35 Z " />
<path stroke="transparent" fill="#3fc56a" transform="matrix(0.166667 0 0 0.166667 -307.5 -275.333)" d="M 5072.13,2203.11 L 5088.31,2191.35 L 5379.48,2592.12 L 5363.3,2603.88 L 5072.13,2203.11 Z " />
<path stroke="transparent" fill="#3fc56a" transform="matrix(0.166667 0 0 0.166667 -307.5 -275.333)" d="M 4682.02,2261.42 L 4675.84,2242.4 L 5111.54,2100.83 L 5103.9,2124.35 L 4682.02,2261.42 Z " />
<text x="0" y="0" stroke="transparent" fill="#3fc56a" transform="matrix(0.166667 0 0 0.166667 523.499 433.238)" style="font:normal normal normal 320px 'Arial'" >
N</text>
<text x="0" y="0" stroke="transparent" fill="#3fc56a" transform="matrix(0.166667 0 0 0.166667 421.673 558.982)" style="font:normal normal normal 320px 'Arial'" >
N</text>
<path stroke="transparent" fill="#3fc56a" transform="matrix(0.166667 0 0 0.166667 -307.5 -275.333)" d="M 4531.55,4288.5 L 4512.34,4272.94 L 4957.04,4153.78 L 4962.22,4173.1 L 4531.55,4288.5 Z " />
<path stroke="transparent" fill="#3fc56a" transform="matrix(0.166667 0 0 0.166667 -307.5 -275.333)" d="M 4593.69,4346.38 L 4588.52,4327.07 L 4975.68,4223.33 L 4980.85,4242.64 L 4593.69,4346.38 Z " />
<path stroke="transparent" fill="#3fc56a" transform="matrix(0.166667 0 0 0.166667 -307.5 -275.333)" d="M 4507.99,4737.92 L 4488.02,4736.87 L 4512.34,4272.94 L 4531.55,4288.5 L 4507.99,4737.92 Z " />
<path stroke="transparent" fill="#3fc56a" transform="matrix(0.166667 0 0 0.166667 -307.5 -275.333)" d="M 5047.49,5082.98 L 5053.89,5106.86 L 4630.6,4944.37 L 4637.76,4925.7 L 5047.49,5082.98 Z " />
<path stroke="transparent" fill="#3fc56a" transform="matrix(0.166667 0 0 0.166667 -307.5 -275.333)" d="M 5415.94,4627.98 L 5440.62,4629.27 L 5053.89,5106.86 L 5047.49,5082.98 L 5415.94,4627.98 Z " />
<path stroke="transparent" fill="#3fc56a" transform="matrix(0.166667 0 0 0.166667 -307.5 -275.333)" d="M 5331.63,4617.68 L 5347.18,4630.26 L 5035.43,5015.24 L 5019.88,5002.66 L 5331.63,4617.68 Z " />
<path stroke="transparent" fill="#3fc56a" transform="matrix(0.166667 0 0 0.166667 -307.5 -275.333)" d="M 5198.32,4292.88 L 5215.09,4281.99 L 5440.62,4629.27 L 5415.94,4627.98 L 5198.32,4292.88 Z " />
<path stroke="transparent" fill="#3fc56a" transform="matrix(0.166667 0 0 0.166667 -307.5 -275.333)" d="M 5389.99,3605.75 L 5413.01,3605.88 L 5196.81,3980.34 L 5179.49,3970.34 L 5389.99,3605.75 Z " />
<path stroke="transparent" fill="#3fc56a" transform="matrix(0.166667 0 0 0.166667 -307.5 -275.333)" d="M 5193.35,3256.08 L 5210.78,3246.28 L 5413.01,3605.88 L 5389.99,3605.75 L 5193.35,3256.08 Z " />
<path stroke="#3fc56a" stroke-width="20" fill="transparent" transform="matrix(0.166667 0 0 0.166667 -307.5 -275.333)" d="M 5070,3710.25 A 606,606 0 0 0 5676,3710.25" />
<path stroke="#3fc56a" stroke-width="20" fill="transparent" transform="matrix(0.166667 0 0 0.166667 -307.5 -275.333)" d="M 5685.11,3491.37 A 606,606 0 0 0 5079.21,3480.79" />
<text x="0" y="0" stroke="transparent" fill="#3fc56a" transform="matrix(0.166667 0 0 0.166667 642.5 379.667)" style="font:normal normal normal 320px 'Arial'" >
6</text>
<path stroke="#3fc56a" stroke-width="16" fill="transparent" transform="matrix(0.166667 0 0 0.166667 -307.5 -275.333)" d="M 5313.33,3053.4 A 105,105 0 1 0 5523.33,3053.4A 105,105 0 1 0 5313.33,3053.4Z " />
<path stroke="transparent" fill="#3fc56a" transform="matrix(0.166667 0 0 0.166667 -307.5 -275.333)" d="M 5359.9,3045.53 L 5477.03,3045.53 L 5477.03,3061.53 L 5359.9,3061.53 Z " />
<path stroke="transparent" fill="#3fc56a" transform="matrix(0.166667 0 0 0.166667 -307.5 -275.333)" d="M 5426.47,2994.97 L 5426.47,3112.1 L 5410.47,3112.1 L 5410.47,2994.97 Z " />
<text x="0" y="0" stroke="transparent" fill="#0000ff" transform="matrix(0.166667 0 0 0.166667 665.5 207.667)" style="font:normal normal normal 320px 'Arial'" >
Br</text>
<text x="0" y="0" stroke="transparent" fill="#0000ff" transform="matrix(0.166667 0 0 0.166667 670.5 488.667)" style="font:normal normal normal 320px 'Arial'" >
Br</text>
<path stroke="#0000ff" stroke-width="16" fill="transparent" transform="matrix(0.166667 0 0 0.166667 -307.5 -275.333)" d="M 5595.33,2787.53 A 95,95 0 1 0 5785.33,2787.53A 95,95 0 1 0 5595.33,2787.53Z " />
<path stroke="transparent" fill="#0000ff" transform="matrix(0.166667 0 0 0.166667 -307.5 -275.333)" d="M 5636.87,2779.6 L 5743.93,2779.6 L 5743.93,2795.6 L 5636.87,2795.6 Z " />
<path stroke="#3fc56a" stroke-width="16" fill="transparent" transform="matrix(0.166667 0 0 0.166667 -307.5 -275.333)" d="M 5325.33,4235.4 A 105,105 0 1 0 5535.33,4235.4A 105,105 0 1 0 5325.33,4235.4Z " />
<path stroke="transparent" fill="#3fc56a" transform="matrix(0.166667 0 0 0.166667 -307.5 -275.333)" d="M 5371.9,4227.53 L 5489.03,4227.53 L 5489.03,4243.53 L 5371.9,4243.53 Z " />
<path stroke="transparent" fill="#3fc56a" transform="matrix(0.166667 0 0 0.166667 -307.5 -275.333)" d="M 5438.47,4176.97 L 5438.47,4294.1 L 5422.47,4294.1 L 5422.47,4176.97 Z " />
<path stroke="#0000ff" stroke-width="16" fill="transparent" transform="matrix(0.166667 0 0 0.166667 -307.5 -275.333)" d="M 5625.33,4437.53 A 95,95 0 1 0 5815.33,4437.53A 95,95 0 1 0 5625.33,4437.53Z " />
<path stroke="transparent" fill="#0000ff" transform="matrix(0.166667 0 0 0.166667 -307.5 -275.333)" d="M 5666.87,4429.6 L 5773.93,4429.6 L 5773.93,4445.6 L 5666.87,4445.6 Z " />
<path stroke="transparent" fill="#ff0000" transform="matrix(0.166667 0 0 0.166667 -307.5 -275.333)" d="M 4017.47,2009.55 L 4017.47,1986.45 L 4395.04,2204.44 L 4385.04,2221.76 L 4017.47,2009.55 Z " />
<path stroke="transparent" fill="#ff0000" transform="matrix(0.166667 0 0 0.166667 -307.5 -275.333)" d="M 3497.85,2309.55 L 3497.85,2286.45 L 4017.47,1986.45 L 4017.47,2009.55 L 3497.85,2309.55 Z " />
<path stroke="transparent" fill="#ff0000" transform="matrix(0.166667 0 0 0.166667 -307.5 -275.333)" d="M 2978.24,2009.55 L 2978.24,1986.45 L 3497.85,2286.45 L 3497.85,2309.55 L 2978.24,2009.55 Z " />
<path stroke="transparent" fill="#ff0000" transform="matrix(0.166667 0 0 0.166667 -307.5 -275.333)" d="M 2973.24,2089.8 L 2983.24,2072.48 L 3466.85,2351.69 L 3456.85,2369.01 L 2973.24,2089.8 Z " />
<path stroke="transparent" fill="#ff0000" transform="matrix(0.166667 0 0 0.166667 -307.5 -275.333)" d="M 2458.62,2309.55 L 2458.62,2286.45 L 2978.24,1986.45 L 2978.24,2009.55 L 2458.62,2309.55 Z " />
<path stroke="transparent" fill="#ff0000" transform="matrix(0.166667 0 0 0.166667 -307.5 -275.333)" d="M 1934.01,2006.66 L 1944.01,1989.34 L 2458.62,2286.45 L 2458.62,2309.55 L 1934.01,2006.66 Z " />
<path stroke="transparent" fill="#ff0000" transform="matrix(0.166667 0 0 0.166667 -307.5 -275.333)" d="M 1970.01,1944.31 L 1980.01,1926.99 L 2463.62,2206.2 L 2453.62,2223.52 L 1970.01,1944.31 Z " />
<path stroke="transparent" fill="#ff0000" transform="matrix(0.166667 0 0 0.166667 -307.5 -275.333)" d="M 3970.92,5191.44 L 3970.92,5168.35 L 4335.75,4957.71 L 4345.75,4975.03 L 3970.92,5191.44 Z " />
<path stroke="transparent" fill="#ff0000" transform="matrix(0.166667 0 0 0.166667 -307.5 -275.333)" d="M 3451.31,4891.44 L 3451.31,4868.35 L 3970.92,5168.35 L 3970.92,5191.44 L 3451.31,4891.44 Z " />
<path stroke="transparent" fill="#ff0000" transform="matrix(0.166667 0 0 0.166667 -307.5 -275.333)" d="M 2931.69,5191.44 L 2931.69,5168.35 L 3451.31,4868.35 L 3451.31,4891.44 L 2931.69,5191.44 Z " />
<path stroke="transparent" fill="#ff0000" transform="matrix(0.166667 0 0 0.166667 -307.5 -275.333)" d="M 2972.69,5250.91 L 2962.69,5233.59 L 3446.31,4954.37 L 3456.31,4971.69 L 2972.69,5250.91 Z " />
<path stroke="transparent" fill="#ff0000" transform="matrix(0.166667 0 0 0.166667 -307.5 -275.333)" d="M 2412.08,4891.44 L 2412.08,4868.35 L 2931.69,5168.35 L 2931.69,5191.44 L 2412.08,4891.44 Z " />
<path stroke="transparent" fill="#ff0000" transform="matrix(0.166667 0 0 0.166667 -307.5 -275.333)" d="M 1897.46,5188.56 L 1887.46,5171.23 L 2412.08,4868.35 L 2412.08,4891.44 L 1897.46,5188.56 Z " />
<path stroke="transparent" fill="#ff0000" transform="matrix(0.166667 0 0 0.166667 -307.5 -275.333)" d="M 1933.46,5250.91 L 1923.46,5233.59 L 2407.08,4954.37 L 2417.08,4971.69 L 1933.46,5250.91 Z " />
<path stroke="#ff0000" stroke-width="20" fill="transparent" transform="matrix(0.166667 0 0 0.166667 -307.5 -275.333)" d="M 4109.94,5488.29 A 684,684 0 0 0 4121.88,4804.39" />
<path stroke="#ff0000" stroke-width="20" fill="transparent" transform="matrix(0.166667 0 0 0.166667 -307.5 -275.333)" d="M 3810,4794 A 684,684 0 0 0 3810,5478" />
<path stroke="#ff0000" stroke-width="20" fill="transparent" transform="matrix(0.166667 0 0 0.166667 -307.5 -275.333)" d="M 4163.94,2398.29 A 684,684 0 0 0 4175.88,1714.39" />
<path stroke="#ff0000" stroke-width="20" fill="transparent" transform="matrix(0.166667 0 0 0.166667 -307.5 -275.333)" d="M 3864,1704 A 684,684 0 0 0 3864,2388" />
<text x="0" y="0" stroke="transparent" fill="#ff0000" transform="matrix(0.166667 0 0 0.166667 329.5 187.667)" style="font:normal normal normal 320px 'Arial'" >
14</text>
<text x="0" y="0" stroke="transparent" fill="#ff0000" transform="matrix(0.166667 0 0 0.166667 322.5 495.667)" style="font:normal normal normal 320px 'Arial'" >
14</text>
</svg>
