<?xml version="1.0"?><svg xmlns="http://www.w3.org/2000/svg" xmlns:xlink="http://www.w3.org/1999/xlink" viewBox="120.62 62.8 264.38 116.75" preserveAspectRatio="xMidYMid" width="100%" height="100%"><clipPath id="175"><rect x="0.5" y="0.5" width="539" height="719" /></clipPath><g id="drawing"><rect x="120.62" y="62.8" width="100%" height="100%" fill="rgb(255, 255, 255)" /><g id="page" clip-path="url(#175)"><g><text xml:space="preserve" text-anchor="end" text-rendering="geometricPrecision"><tspan x="164.13" y="73.2" font-family="Arial" font-size="10" fill="rgb(0, 0, 0)">H</tspan><tspan font-family="Arial" dy="2.26" font-size="7.5" fill="rgb(0, 0, 0)">2</tspan><tspan font-family="Arial" dy="-2.26" font-size="10" fill="rgb(0, 0, 0)">C</tspan></text></g><g><text xml:space="preserve" text-anchor="start" text-rendering="geometricPrecision"><tspan x="186.93" y="73.2" font-family="Arial" font-size="10" fill="rgb(0, 0, 0)">CHOO CH</tspan><tspan font-family="Arial" dy="2.26" font-size="7.5" fill="rgb(0, 0, 0)">2</tspan><tspan font-family="Arial" dy="-2.26" font-size="10" fill="rgb(0, 0, 0)">  O</tspan></text></g><g id="Solid"><line x1="165.8" y1="67.82" x2="185.5" y2="67.82" stroke="rgb(0, 0, 0)" stroke-width="1" shape-rendering="auto" /><path d="M165.8 70.28 L165.8 70.28 L165.8 71.28 L185.5 71.28 L185.5 70.28 Z" stroke="rgb(0, 0, 0)" stroke-width="0" fill-rule="evenodd" stroke-linejoin="miter" fill="rgb(0, 0, 0)" shape-rendering="geometricPrecision" /><path d="M165.8 67.32 L165.8 67.32 L165.8 68.32 L185.5 68.32 L185.5 67.32 Z" stroke="rgb(0, 0, 0)" stroke-width="0" fill-rule="evenodd" stroke-linejoin="miter" fill="rgb(0, 0, 0)" shape-rendering="geometricPrecision" /></g><g id="Bracket"><path d="M238.81 63.3 A13.5,13.5 0 0,1 238.81 76.8 " stroke="rgb(0, 0, 0)" stroke-width="1" fill-rule="evenodd" stroke-linejoin="miter" fill="none" shape-rendering="geometricPrecision" /></g><g id="ObjectTag"><g><text xml:space="preserve" text-anchor="start" text-rendering="geometricPrecision"><tspan x="239.93" y="79.95" font-family="Arial" font-size="7.5" fill="rgb(0, 0, 0)">11</tspan></text></g></g><g id="Bracket"><path d="M219.15 76.8 A13.5,13.5 0 0,1 219.15 63.3 " stroke="rgb(0, 0, 0)" stroke-width="1" fill-rule="evenodd" stroke-linejoin="miter" fill="none" shape-rendering="geometricPrecision" /></g><g><text xml:space="preserve" text-anchor="end" text-rendering="geometricPrecision"><tspan x="139.23" y="121.2" font-family="Arial" font-size="10" fill="rgb(0, 0, 0)">H</tspan><tspan font-family="Arial" dy="2.26" font-size="7.5" fill="rgb(0, 0, 0)">2</tspan><tspan font-family="Arial" dy="-2.26" font-size="10" fill="rgb(0, 0, 0)">C</tspan></text></g><g><text xml:space="preserve" text-anchor="start" text-rendering="geometricPrecision"><tspan x="162.03" y="121.2" font-family="Arial" font-size="10" fill="rgb(0, 0, 0)">CHOO CH</tspan><tspan font-family="Arial" dy="2.26" font-size="7.5" fill="rgb(0, 0, 0)">2</tspan><tspan font-family="Arial" dy="-2.26" font-size="10" fill="rgb(0, 0, 0)">  O</tspan></text></g><g id="Solid"><line x1="140.9" y1="115.82" x2="160.6" y2="115.82" stroke="rgb(0, 0, 0)" stroke-width="1" shape-rendering="auto" /><line x1="140.9" y1="118.78" x2="160.6" y2="118.78" stroke="rgb(0, 0, 0)" stroke-width="1" shape-rendering="auto" /><line x1="140.9" y1="115.82" x2="160.6" y2="115.82" stroke="rgb(0, 0, 0)" stroke-width="1" shape-rendering="auto" /></g><g id="Bracket"><path d="M213.91 111.3 A13.5,13.5 0 0,1 213.91 124.8 " stroke="rgb(0, 0, 0)" stroke-width="1" fill-rule="evenodd" stroke-linejoin="miter" fill="none" shape-rendering="geometricPrecision" /></g><g id="ObjectTag"><g><text xml:space="preserve" text-anchor="start" text-rendering="geometricPrecision"><tspan x="215.03" y="127.95" font-family="Arial" font-size="7.5" fill="rgb(0, 0, 0)">11</tspan></text></g></g><g id="Bracket"><path d="M194.25 124.8 A13.5,13.5 0 0,1 194.25 111.3 " stroke="rgb(0, 0, 0)" stroke-width="1" fill-rule="evenodd" stroke-linejoin="miter" fill="none" shape-rendering="geometricPrecision" /></g><g><text xml:space="preserve" text-anchor="end" text-rendering="geometricPrecision"><tspan x="162.03" y="172.8" font-family="Arial" font-size="10" fill="rgb(0, 0, 0)">H</tspan><tspan font-family="Arial" dy="2.26" font-size="7.5" fill="rgb(0, 0, 0)">2</tspan><tspan font-family="Arial" dy="-2.26" font-size="10" fill="rgb(0, 0, 0)">C</tspan></text></g><g><text xml:space="preserve" text-anchor="start" text-rendering="geometricPrecision"><tspan x="184.83" y="172.8" font-family="Arial" font-size="10" fill="rgb(0, 0, 0)">CHOO CH</tspan><tspan font-family="Arial" dy="2.26" font-size="7.5" fill="rgb(0, 0, 0)">2</tspan><tspan font-family="Arial" dy="-2.26" font-size="10" fill="rgb(0, 0, 0)">  O</tspan></text></g><g id="Solid"><line x1="163.7" y1="167.42" x2="183.4" y2="167.42" stroke="rgb(0, 0, 0)" stroke-width="1" shape-rendering="auto" /><path d="M163.7 169.88 L163.7 169.88 L163.7 170.88 L183.4 170.88 L183.4 169.88 Z" stroke="rgb(0, 0, 0)" stroke-width="0" fill-rule="evenodd" stroke-linejoin="miter" fill="rgb(0, 0, 0)" shape-rendering="geometricPrecision" /><path d="M163.7 166.92 L163.7 166.92 L163.7 167.92 L183.4 167.92 L183.4 166.92 Z" stroke="rgb(0, 0, 0)" stroke-width="0" fill-rule="evenodd" stroke-linejoin="miter" fill="rgb(0, 0, 0)" shape-rendering="geometricPrecision" /></g><g id="Bracket"><path d="M236.71 162.9 A13.5,13.5 0 0,1 236.71 176.4 " stroke="rgb(0, 0, 0)" stroke-width="1" fill-rule="evenodd" stroke-linejoin="miter" fill="none" shape-rendering="geometricPrecision" /></g><g id="ObjectTag"><g><text xml:space="preserve" text-anchor="start" text-rendering="geometricPrecision"><tspan x="237.83" y="179.55" font-family="Arial" font-size="7.5" fill="rgb(0, 0, 0)">11</tspan></text></g></g><g id="Bracket"><path d="M217.05 176.4 A13.5,13.5 0 0,1 217.05 162.9 " stroke="rgb(0, 0, 0)" stroke-width="1" fill-rule="evenodd" stroke-linejoin="miter" fill="none" shape-rendering="geometricPrecision" /></g><g id="Solid"><path d="M255.76 117.5 L255.76 117.5 L256.05 117 L256.63 117 L271.34 142.48 L271.05 142.98 L270.31 142.69 Z" stroke="rgb(0, 0, 0)" stroke-width="0" fill-rule="evenodd" stroke-linejoin="miter" fill="rgb(0, 0, 0)" shape-rendering="geometricPrecision" /><line x1="260.21" y1="117" x2="273.13" y2="139.38" stroke="rgb(0, 0, 0)" stroke-width="1" shape-rendering="auto" /></g><g id="Solid"><path d="M271.13 143.48 L271.13 143.48 L271.05 142.98 L271.34 142.48 L300.76 142.48 L301.05 142.98 L301.34 143.48 Z" stroke="rgb(0, 0, 0)" stroke-width="0" fill-rule="evenodd" stroke-linejoin="miter" fill="rgb(0, 0, 0)" shape-rendering="geometricPrecision" /></g><g id="Solid"><path d="M301.34 143.48 L301.34 143.48 L301.05 142.98 L300.76 142.48 L315.47 117 L316.05 117 L316.34 117.5 Z" stroke="rgb(0, 0, 0)" stroke-width="0" fill-rule="evenodd" stroke-linejoin="miter" fill="rgb(0, 0, 0)" shape-rendering="geometricPrecision" /><line x1="298.97" y1="139.38" x2="311.89" y2="117" stroke="rgb(0, 0, 0)" stroke-width="1" shape-rendering="auto" /></g><g id="Solid"><path d="M316.34 116.5 L316.34 116.5 L316.05 117 L315.47 117 L300.76 91.52 L301.05 91.02 L301.34 90.52 Z" stroke="rgb(0, 0, 0)" stroke-width="0" fill-rule="evenodd" stroke-linejoin="miter" fill="rgb(0, 0, 0)" shape-rendering="geometricPrecision" /></g><g id="Solid"><path d="M301.34 90.52 L301.34 90.52 L301.05 91.02 L300.76 91.52 L271.34 91.52 L271.05 91.02 L271.12 90.52 Z" stroke="rgb(0, 0, 0)" stroke-width="0" fill-rule="evenodd" stroke-linejoin="miter" fill="rgb(0, 0, 0)" shape-rendering="geometricPrecision" /><line x1="298.97" y1="94.62" x2="273.13" y2="94.62" stroke="rgb(0, 0, 0)" stroke-width="1" shape-rendering="auto" /></g><g id="Solid"><path d="M270.29 91.33 L270.29 91.33 L271.05 91.02 L271.34 91.52 L256.63 117 L256.05 117 L255.76 116.5 Z" stroke="rgb(0, 0, 0)" stroke-width="0" fill-rule="evenodd" stroke-linejoin="miter" fill="rgb(0, 0, 0)" shape-rendering="geometricPrecision" /></g><g id="Solid"><path d="M228.4 117.75 L228.4 117.75 L228.4 117.25 L228.4 116.75 L255.76 116.5 L256.05 117 L255.76 117.5 Z" stroke="rgb(0, 0, 0)" stroke-width="0" fill-rule="evenodd" stroke-linejoin="miter" fill="rgb(0, 0, 0)" shape-rendering="geometricPrecision" /></g><g id="Solid"><path d="M251.93 74.08 L251.93 74.08 L252.27 73.72 L252.61 73.35 L271.12 90.52 L271.05 91.02 L270.29 91.33 Z" stroke="rgb(0, 0, 0)" stroke-width="0" fill-rule="evenodd" stroke-linejoin="miter" fill="rgb(0, 0, 0)" shape-rendering="geometricPrecision" /></g><g id="Solid"><path d="M249.92 165.03 L249.92 165.03 L249.56 164.68 L249.2 164.33 L270.31 142.69 L271.05 142.98 L271.13 143.48 Z" stroke="rgb(0, 0, 0)" stroke-width="0" fill-rule="evenodd" stroke-linejoin="miter" fill="rgb(0, 0, 0)" shape-rendering="geometricPrecision" /></g><g id="Solid"><path d="M316.34 117.5 L316.34 117.5 L316.05 117 L316.34 116.5 L341 116.5 L341 117 L341 117.5 Z" stroke="rgb(0, 0, 0)" stroke-width="0" fill-rule="evenodd" stroke-linejoin="miter" fill="rgb(0, 0, 0)" shape-rendering="geometricPrecision" /></g><g><text xml:space="preserve" text-anchor="start" text-rendering="geometricPrecision"><tspan x="342.45" y="120.9" font-family="Arial" font-size="10" fill="rgb(0, 0, 0)">COO</tspan><tspan font-family="Arial" dy="-4.07" font-size="7.5" fill="rgb(0, 0, 0)">-</tspan><tspan font-family="Arial" dy="4.07" font-size="10" fill="rgb(0, 0, 0)">Na</tspan><tspan font-family="Arial" dy="-4.07" font-size="7.5" fill="rgb(0, 0, 0)">+</tspan></text></g></g></g></svg>